<?xml version="1.0" standalone="no"?>
<!DOCTYPE svg PUBLIC "-//W3C//DTD SVG 20010904//EN"
 "http://www.w3.org/TR/2001/REC-SVG-20010904/DTD/svg10.dtd">
<svg version="1.0" xmlns="http://www.w3.org/2000/svg"
 width="558.000000pt" height="558.000000pt" viewBox="0 0 558.000000 558.000000"
 preserveAspectRatio="xMidYMid meet">
<metadata>
Created by potrace 1.11, written by Peter Selinger 2001-2013
</metadata>
<g transform="translate(0.000000,558.000000) scale(0.100000,-0.100000)"
fill="#000000" stroke="none">
<path d="M2560 5577 c-3 -3 -36 -7 -75 -11 -462 -40 -975 -244 -1381 -550
-290 -219 -528 -488 -731 -826 -35 -58 -131 -255 -167 -342 -66 -162 -138
-407 -160 -548 -3 -19 -8 -46 -10 -60 -23 -126 -31 -245 -31 -445 0 -166 10
-369 20 -385 1 -3 6 -27 9 -55 4 -27 9 -57 11 -65 2 -8 7 -31 10 -50 3 -19 15
-71 26 -115 98 -389 265 -733 504 -1041 440 -566 1093 -948 1794 -1050 25 -4
55 -8 65 -10 128 -23 558 -23 701 1 17 3 46 8 65 11 19 3 50 8 69 10 18 3 72
13 120 24 661 148 1256 541 1652 1092 110 152 146 211 222 360 124 242 221
526 262 773 3 17 8 41 10 55 6 27 12 78 23 185 13 134 5 595 -12 623 -2 4 -7
33 -10 65 -4 32 -9 64 -11 70 -2 7 -6 28 -9 47 -8 53 -61 254 -91 345 -246
736 -829 1370 -1535 1669 -107 45 -169 70 -180 71 -3 1 -42 13 -87 28 -115 37
-261 73 -373 91 -52 8 -113 18 -135 21 -46 8 -559 18 -565 12z m520 -51 c23
-4 56 -9 160 -22 77 -10 272 -58 390 -96 901 -291 1584 -1017 1820 -1932 25
-98 42 -182 64 -326 25 -158 26 -599 1 -714 -2 -11 -7 -37 -9 -56 -25 -176
-110 -485 -166 -605 -5 -11 -21 -49 -35 -85 -34 -83 -122 -249 -187 -354 -376
-602 -992 -1046 -1678 -1211 -244 -58 -351 -70 -655 -70 -230 0 -305 4 -425
25 -30 5 -68 12 -85 15 -77 13 -280 67 -375 100 -141 49 -203 76 -343 146
-712 357 -1242 1018 -1433 1789 -14 59 -53 265 -58 308 -3 28 -9 76 -12 105
-10 78 -12 361 -3 452 11 122 19 198 24 215 2 8 7 35 10 60 7 53 61 275 82
340 147 453 380 831 709 1152 440 428 990 688 1619 763 105 12 526 13 585 1z"/>
<path d="M3833 4780 c-255 -127 -618 -627 -964 -1326 -54 -110 -99 -204 -99
-209 0 -4 7 -2 15 5 27 23 28 -15 1 -66 -31 -61 -120 -187 -112 -157 4 12 23
54 42 93 19 40 33 75 30 78 -3 3 -9 -4 -13 -14 -15 -41 -146 -205 -240 -300
-125 -127 -237 -225 -366 -320 -56 -41 -106 -78 -112 -82 -25 -19 -216 -132
-271 -160 -214 -108 -317 -65 -316 133 1 80 5 108 33 224 32 127 137 404 230
607 49 108 50 110 31 127 -9 8 -28 18 -41 22 -40 12 -133 6 -157 -10 -13 -8
-55 -80 -97 -164 -206 -412 -272 -721 -187 -883 50 -96 143 -143 290 -147 42
-1 101 5 135 14 147 39 434 218 660 411 77 66 96 80 94 67 -4 -25 5 -46 37
-88 l35 -47 -31 -86 c-125 -340 -261 -798 -295 -990 -3 -18 -12 -63 -19 -100
-8 -37 -17 -92 -21 -122 -4 -30 -8 -57 -10 -60 -6 -10 -18 -169 -20 -270 -2
-105 14 -260 36 -335 18 -63 66 -152 104 -190 70 -73 217 -106 309 -71 149 57
248 322 284 756 18 217 5 815 -23 1063 -3 26 -8 71 -11 100 -9 83 -34 239 -40
248 -3 5 19 9 48 10 29 0 64 2 78 4 14 1 56 6 93 10 37 3 76 8 85 10 9 1 44 6
77 9 33 4 67 9 75 11 8 2 31 7 50 10 66 11 305 74 390 103 291 100 515 228
621 355 53 63 109 158 109 185 0 30 -28 7 -58 -47 -111 -202 -454 -397 -901
-512 -145 -37 -280 -64 -375 -75 -23 -3 -47 -7 -54 -9 -7 -2 -62 -7 -122 -11
l-110 -6 25 68 c13 38 60 161 102 274 l78 204 42 12 c96 28 285 176 473 370
429 444 685 871 668 1114 -6 82 -26 117 -89 158 -66 44 -140 45 -226 2z m214
-62 c136 -66 -55 -500 -420 -953 -101 -127 -301 -337 -402 -424 -61 -53 -226
-163 -233 -156 -28 27 405 824 655 1207 203 311 288 380 400 326z m-1426
-1805 c-44 -112 -43 -110 -77 -98 l-31 10 61 67 c33 37 62 68 63 68 2 0 -6
-21 -16 -47z m-132 -105 c-2 -2 -19 -16 -38 -33 -19 -16 -30 -23 -26 -15 15
29 38 50 53 50 9 0 13 -1 11 -2z m241 -430 c16 -101 18 -115 25 -183 4 -33 8
-75 10 -94 25 -224 25 -904 0 -1064 -2 -12 -6 -49 -10 -82 -4 -32 -9 -68 -11
-80 -3 -11 -7 -38 -10 -60 -9 -61 -52 -204 -80 -265 -50 -111 -114 -162 -191
-153 -113 12 -163 111 -167 328 -2 92 15 267 34 360 6 28 13 65 16 81 21 121
89 386 171 669 56 195 191 615 198 615 2 0 8 -33 15 -72z"/>
<path d="M1639 3721 c-17 -18 -29 -40 -29 -56 0 -41 50 -85 97 -85 64 1 88 31
84 108 -3 64 -99 85 -152 33z"/>
</g>
</svg>
